<svg width="52" height="69" viewBox="0 0 52 69" fill="none" xmlns="http://www.w3.org/2000/svg">
<path d="M51.0744 64.4969L51.0744 64.4969L45.9594 36.2574L45.2583 32.384L40.0135 3.39864L40.0134 3.39811C39.743 1.93993 38.485 0.875 37.0084 0.875H14.9903C13.5137 0.875 12.2557 1.93993 11.9853 3.39811L11.9852 3.39866L10.0898 13.8805L10.0898 13.8805L9.38876 17.7539L0.92427 64.4969L0.924254 64.4969C0.761846 65.3973 1.00571 66.311 1.58676 67.0193C2.16906 67.7291 3.02259 68.125 3.92935 68.125H10.6802C12.1568 68.125 13.4148 67.0601 13.6852 65.6019L13.6853 65.6013L14.8404 59.2038C14.8405 59.2035 14.8405 59.2033 14.8406 59.203C14.9208 58.7887 15.2736 58.4937 15.6784 58.4937H19.7418H23.6495H36.3203C36.728 58.4937 37.09 58.7912 37.1577 59.2005L37.158 59.2023L38.3134 65.6013L38.3135 65.6019C38.5839 67.0601 39.8419 68.125 41.3185 68.125H48.0693C48.9772 68.125 49.8298 67.7152 50.4112 67.0202C51.0068 66.3105 51.2366 65.396 51.0744 64.4969ZM48.7291 65.6005L48.7289 65.6004L48.7244 65.6061C48.6353 65.7184 48.4212 65.9121 48.0693 65.9121H41.3185C40.9109 65.9121 40.5488 65.6147 40.4812 65.2054L40.4808 65.2036L39.3254 58.8045L39.3253 58.804C39.0549 57.3458 37.7969 56.2809 36.3203 56.2809H23.6495H19.7418H15.6784C14.2018 56.2809 12.9438 57.3458 12.6734 58.804L12.6733 58.8045L11.5181 65.2021C11.5181 65.2023 11.518 65.2026 11.518 65.2028C11.4377 65.6171 11.085 65.9121 10.6802 65.9121H3.92935C3.58233 65.9121 3.38036 65.724 3.27204 65.6032C3.17773 65.4836 3.02431 65.2342 3.09128 64.8968L3.09166 64.8947L11.5561 18.1518L11.4331 18.1295L11.5562 18.1518L12.2572 14.2783L12.2572 14.2783L14.1524 3.7979C14.1524 3.79766 14.1524 3.79743 14.1525 3.79719C14.2327 3.38287 14.5855 3.08789 14.9903 3.08789H37.0084C37.416 3.08789 37.7781 3.3853 37.8457 3.79461L37.8461 3.79648L43.0909 32.7818L43.792 36.6553L43.915 36.633L43.792 36.6553L48.907 64.8947L48.9074 64.8968C48.9755 65.24 48.8282 65.4896 48.7291 65.6005Z" fill="#424242" stroke="#424242" stroke-width="0.25"/>
<path d="M21.3596 15.3803H30.6403C32.4959 15.3803 33.9821 13.7144 33.9821 11.6915C33.9821 9.66858 32.4959 8.00269 30.6403 8.00269H21.3596C19.5041 8.00269 18.0178 9.66858 18.0178 11.6915C18.0178 13.7148 19.5167 15.3803 21.3596 15.3803ZM21.3596 10.3145H30.6403C31.3107 10.3145 31.871 10.9282 31.871 11.6915C31.871 12.467 31.2997 13.0685 30.6403 13.0685H21.3596C20.6882 13.0685 20.117 12.4538 20.1166 11.6925C20.1285 10.9278 20.6897 10.3145 21.3596 10.3145Z" fill="#424242" stroke="#424242" stroke-width="0.25"/>
<path d="M16.0975 42.812L16.0973 42.8121C16.1647 42.9269 16.3958 43.2185 16.8517 43.2185H35.1566C35.6036 43.2185 35.8232 42.9387 35.9119 42.8103C35.9874 42.6686 36.125 42.3572 35.9249 42.0035L26.7749 27.606C26.7748 27.6058 26.7746 27.6056 26.7745 27.6054C26.5435 27.252 26.1732 27.2069 26.0174 27.2069C25.8616 27.2069 25.4913 27.252 25.2603 27.6054C25.2602 27.6056 25.26 27.6058 25.2599 27.606L16.1084 42.006L16.0975 42.812ZM16.0975 42.812L16.0926 42.8048M16.0975 42.812L16.0926 42.8048M16.0926 42.8048C16.0169 42.6943 15.879 42.3683 16.1083 42.0062L16.0926 42.8048ZM28.683 26.5345L28.6827 26.5341C28.1147 25.6463 27.1057 25.109 26.0041 25.109C24.9035 25.109 23.8936 25.6333 23.3251 26.5348L14.173 40.9357C13.5899 41.8512 13.5901 42.9372 14.145 43.8519L14.1457 43.853C14.7134 44.7661 15.7228 45.3165 16.8517 45.3165H35.1433C36.2722 45.3165 37.2816 44.7661 37.8493 43.853C38.4188 42.9371 38.4048 41.838 37.8219 40.9354C37.8218 40.9353 37.8217 40.9352 37.8216 40.935L28.683 26.5345Z" fill="#424242" stroke="#424242" stroke-width="0.25"/>
<path d="M26 29.3856C25.7446 29.3856 25.5316 29.5418 25.3884 29.76C25.2446 29.9789 25.1607 30.273 25.1607 30.5884V35.5605C25.1607 35.8834 25.2471 36.1779 25.3925 36.3952C25.5373 36.6117 25.7502 36.7633 26 36.7633C26.2554 36.7633 26.4684 36.6071 26.6116 36.389C26.7554 36.17 26.8393 35.8759 26.8393 35.5605V30.5884C26.8393 30.273 26.7554 29.9789 26.6116 29.76C26.4684 29.5418 26.2554 29.3856 26 29.3856Z" fill="#424242" stroke="#424242" stroke-width="0.25"/>
<path d="M25.9999 37.9388C25.5035 37.9388 25.1606 38.4384 25.1606 38.9738V40.005C25.1606 40.2801 25.25 40.5351 25.398 40.7237C25.546 40.9121 25.7582 41.0399 25.9999 41.0399C26.4964 41.0399 26.8392 40.5404 26.8392 40.005V38.9738C26.8392 38.425 26.4955 37.9388 25.9999 37.9388Z" fill="#424242" stroke="#424242" stroke-width="0.25"/>
</svg>
