<svg width="105" height="100" viewBox="0 0 105 100" fill="none" xmlns="http://www.w3.org/2000/svg">
<g clip-path="url(#clip0)">
<path d="M76.3447 8.88244C75.5432 8.58304 74.6415 8.88244 74.3409 9.68084C74.0403 10.4792 74.3409 11.3775 75.1424 11.6769C81.4544 14.4713 86.8647 19.9603 89.6701 26.4473C92.4754 32.8345 92.8762 40.5192 90.672 46.9064C90.3714 47.7048 90.8724 48.603 91.6739 48.9024C92.0747 49.0022 92.4754 49.0022 92.776 48.8026C93.1768 48.603 93.4773 48.3036 93.5775 47.9044C95.9821 40.8186 95.5813 32.3355 92.4754 25.2497C89.2693 18.0641 83.2579 11.8765 76.3447 8.88244Z" fill="#0502D3"/>
<path d="M18.5363 45.3096L13.3263 57.4852C11.4227 61.8764 13.5267 66.9663 18.0353 68.8625L77.749 93.613L85.9647 74.5511" stroke="#0502D3" stroke-width="5" stroke-miterlimit="10" stroke-linecap="round" stroke-linejoin="round"/>
<path d="M21.1399 57.0861L68.7306 76.7468L94.8804 72.2557L97.7859 65.5691L31.159 38.124C26.6504 36.2278 21.4405 38.3236 19.5369 42.7148L14.5273 54.3915" stroke="#0502D3" stroke-width="5" stroke-miterlimit="10" stroke-linecap="round" stroke-linejoin="round"/>
<path d="M89.3707 80.5391L85.0625 90.7187" stroke="#0502D3" stroke-width="5" stroke-miterlimit="10" stroke-linecap="round" stroke-linejoin="round"/>
<path d="M37.6716 89.4211L41.9798 79.3413L33.9645 76.0479L31.6602 81.4371" stroke="#0502D3" stroke-width="5" stroke-miterlimit="10" stroke-linecap="round" stroke-linejoin="round"/>
<path d="M10.3203 77.9443L29.6571 85.9284" stroke="#0502D3" stroke-width="5" stroke-miterlimit="10" stroke-linecap="round" stroke-linejoin="round"/>
<path d="M14.5273 88.9219L26.2497 93.7123" stroke="#0502D3" stroke-width="5" stroke-miterlimit="10" stroke-linecap="round" stroke-linejoin="round"/>
<path d="M26.2494 89.1214C24.9469 92.2152 26.3496 95.7082 29.5557 97.0056C32.6616 98.303 36.2685 96.9058 37.6711 93.812C38.9736 90.7182 37.5709 87.2252 34.3648 85.9278C31.2589 84.6304 27.652 86.0276 26.2494 89.1214Z" stroke="#0502D3" stroke-width="5" stroke-miterlimit="10" stroke-linecap="round" stroke-linejoin="round"/>
<path d="M10.3188 72.4551H2.50391V95.01H10.3188V72.4551Z" stroke="#0502D3" stroke-width="5" stroke-miterlimit="10" stroke-linecap="round" stroke-linejoin="round"/>
<path d="M80.7549 0.100214C79.9533 -0.199187 79.0516 0.100214 78.751 0.898617C78.4505 1.69702 78.7511 2.59522 79.5526 2.89462C88.2692 6.68704 95.1824 13.5733 98.8894 22.1561C102.596 30.6391 102.997 40.22 99.9915 49.1022C99.6909 49.9006 100.192 50.7988 100.993 51.0982C101.394 51.198 101.795 51.198 102.096 51.0982C102.496 50.8986 102.797 50.5992 102.897 50.2C106.103 40.6192 105.702 30.2399 101.695 21.0583C97.5869 11.6771 90.1728 4.29183 80.7549 0.100214Z" fill="#0502D3"/>
<path d="M71.4346 17.5651C70.633 17.2657 69.7313 17.5651 69.4307 18.3635C69.1302 19.1619 69.4307 20.0601 70.2323 20.3595C74.841 22.3555 78.3477 25.9483 80.3515 30.4393C82.2552 34.9303 82.4555 39.9203 80.9527 44.5112C80.6521 45.3096 81.1531 46.2078 81.9546 46.5072C82.3554 46.607 82.7561 46.607 83.0567 46.5072C83.4575 46.3076 83.758 46.0082 83.8582 45.609C85.6616 40.2197 85.4613 34.4313 83.1569 29.3415C80.8525 24.0521 76.7447 19.8605 71.4346 17.5651Z" fill="#0502D3"/>
</g>
<defs>
<clipPath id="clip0">
<rect width="105" height="100" fill="white"/>
</clipPath>
</defs>
</svg>
