<svg width="165" height="48" viewBox="0 0 165 48" fill="none" xmlns="http://www.w3.org/2000/svg">
<path d="M9.35426 22C9.25612 22 9.20705 21.9509 9.20705 21.8528V11.843C9.20705 11.7449 9.25612 11.6958 9.35426 11.6958H12.9166C13.9372 11.6958 14.7517 11.9657 15.3601 12.5054C15.9686 13.0353 16.2728 13.7468 16.2728 14.6399V19.0559C16.2728 19.949 15.9686 20.6654 15.3601 21.2051C14.7517 21.735 13.9372 22 12.9166 22H9.35426ZM10.6202 20.7193C10.6202 20.7586 10.6398 20.7782 10.6791 20.7782H12.9754C13.5446 20.7782 13.9961 20.6065 14.3297 20.263C14.6732 19.9097 14.8498 19.4387 14.8596 18.8499V14.8459C14.8596 14.2571 14.6879 13.791 14.3444 13.4475C14.0108 13.0942 13.5544 12.9176 12.9754 12.9176H10.6791C10.6398 12.9176 10.6202 12.9372 10.6202 12.9765V20.7193ZM25.1515 12.7704C25.1515 12.8685 25.1025 12.9176 25.0043 12.9176H19.7786C19.7394 12.9176 19.7198 12.9372 19.7198 12.9765V16.1413C19.7198 16.1806 19.7394 16.2002 19.7786 16.2002H23.3704C23.4685 16.2002 23.5176 16.2493 23.5176 16.3474V17.2748C23.5176 17.3729 23.4685 17.422 23.3704 17.422H19.7786C19.7394 17.422 19.7198 17.4416 19.7198 17.4809V20.7193C19.7198 20.7586 19.7394 20.7782 19.7786 20.7782H25.0043C25.1025 20.7782 25.1515 20.8273 25.1515 20.9254V21.8528C25.1515 21.9509 25.1025 22 25.0043 22H18.4538C18.3557 22 18.3066 21.9509 18.3066 21.8528V11.843C18.3066 11.7449 18.3557 11.6958 18.4538 11.6958H25.0043C25.1025 11.6958 25.1515 11.7449 25.1515 11.843V12.7704ZM30.2839 22.1178C29.5282 22.1178 28.8707 22 28.3113 21.7645C27.7618 21.529 27.3349 21.1953 27.0307 20.7635C26.7363 20.3317 26.5891 19.8263 26.5891 19.2473V18.8204C26.5891 18.7223 26.6381 18.6732 26.7363 18.6732H27.8109C27.909 18.6732 27.9581 18.7223 27.9581 18.8204V19.1737C27.9581 19.6742 28.174 20.0864 28.6058 20.4102C29.0375 20.7341 29.6313 20.896 30.3869 20.896C31.064 20.896 31.5743 20.7537 31.9178 20.4691C32.2613 20.1845 32.433 19.8116 32.433 19.3503C32.433 19.0461 32.3447 18.7861 32.1681 18.5702C31.9914 18.3543 31.7314 18.158 31.3879 17.9814C31.0542 17.7949 30.5635 17.5741 29.9159 17.3189C29.1995 17.0442 28.6303 16.7939 28.2083 16.5682C27.7961 16.3425 27.4527 16.0481 27.1779 15.685C26.9031 15.3121 26.7657 14.8459 26.7657 14.2866C26.7657 13.4426 27.065 12.7802 27.6637 12.2993C28.2721 11.8185 29.0915 11.578 30.1219 11.578C30.8481 11.578 31.486 11.7007 32.0356 11.946C32.5851 12.1914 33.0071 12.5349 33.3015 12.9765C33.6057 13.4181 33.7579 13.9284 33.7579 14.5074V14.8018C33.7579 14.8999 33.7088 14.949 33.6106 14.949H32.5066C32.4085 14.949 32.3594 14.8999 32.3594 14.8018V14.581C32.3594 14.0707 32.1533 13.6487 31.7412 13.315C31.3388 12.9716 30.7794 12.7998 30.0631 12.7998C29.4546 12.7998 28.9836 12.9274 28.6499 13.1825C28.3163 13.4279 28.1494 13.7861 28.1494 14.2571C28.1494 14.581 28.2328 14.8459 28.3997 15.052C28.5665 15.2581 28.8118 15.4446 29.1357 15.6114C29.4693 15.7684 29.9747 15.9745 30.6519 16.2296C31.3486 16.5044 31.9129 16.7596 32.3447 16.9951C32.7765 17.2208 33.1347 17.525 33.4193 17.9078C33.7039 18.2807 33.8462 18.7468 33.8462 19.3062C33.8462 20.1698 33.5272 20.8567 32.8894 21.367C32.2613 21.8675 31.3928 22.1178 30.2839 22.1178ZM39.0703 22.1325C38.3637 22.1325 37.7356 21.9951 37.1861 21.7203C36.6463 21.4357 36.2243 21.0383 35.9201 20.528C35.6257 20.0079 35.4785 19.4141 35.4785 18.7468V14.9343C35.4785 14.2669 35.6257 13.683 35.9201 13.1825C36.2243 12.6722 36.6463 12.2797 37.1861 12.0049C37.7356 11.7203 38.3637 11.578 39.0703 11.578C39.7768 11.578 40.4 11.7154 40.9397 11.9902C41.4795 12.2552 41.8966 12.633 42.191 13.1237C42.4952 13.6143 42.6473 14.1835 42.6473 14.8312V14.8459C42.6473 14.895 42.6326 14.9343 42.6031 14.9637C42.5737 14.9931 42.5393 15.0079 42.5001 15.0079L41.3814 15.0667C41.2832 15.0667 41.2341 15.0226 41.2341 14.9343V14.8901C41.2341 14.262 41.0379 13.7566 40.6453 13.3739C40.2528 12.9912 39.7278 12.7998 39.0703 12.7998C38.4128 12.7998 37.8828 12.9912 37.4805 13.3739C37.0879 13.7566 36.8917 14.262 36.8917 14.8901V18.8057C36.8917 19.4338 37.0879 19.9392 37.4805 20.3219C37.8828 20.7046 38.4128 20.896 39.0703 20.896C39.7278 20.896 40.2528 20.7046 40.6453 20.3219C41.0379 19.9392 41.2341 19.4338 41.2341 18.8057V18.7763C41.2341 18.6879 41.2832 18.6438 41.3814 18.6438L42.5001 18.7027C42.5982 18.7027 42.6473 18.7517 42.6473 18.8499C42.6473 19.4976 42.4952 20.0716 42.191 20.5721C41.8966 21.0628 41.4795 21.4455 40.9397 21.7203C40.4 21.9951 39.7768 22.1325 39.0703 22.1325ZM50.8695 22C50.7812 22 50.7223 21.9607 50.6929 21.8822L50.1629 20.16C50.1531 20.1305 50.1335 20.1158 50.104 20.1158H45.9676C45.9382 20.1158 45.9186 20.1305 45.9088 20.16L45.3788 21.8822C45.3494 21.9607 45.2905 22 45.2022 22H44.0098C43.9019 22 43.8626 21.946 43.8921 21.8381L47.1158 11.8136C47.1453 11.7351 47.2041 11.6958 47.2925 11.6958H48.7645C48.8528 11.6958 48.9117 11.7351 48.9411 11.8136L52.1943 21.8381L52.209 21.897C52.209 21.9657 52.1649 22 52.0766 22H50.8695ZM46.2768 18.9235C46.267 18.9431 46.267 18.9627 46.2768 18.9823C46.2964 18.9922 46.316 18.9971 46.3356 18.9971H49.7213C49.7409 18.9971 49.7557 18.9922 49.7655 18.9823C49.7851 18.9627 49.79 18.9431 49.7802 18.9235L48.0726 13.4622C48.0628 13.4426 48.0481 13.4328 48.0285 13.4328C48.0089 13.4328 47.9941 13.4426 47.9843 13.4622L46.2768 18.9235ZM59.7588 22C59.6803 22 59.6263 21.9657 59.5969 21.897L57.5361 17.4956C57.5263 17.4662 57.5066 17.4514 57.4772 17.4514H55.3575C55.3182 17.4514 55.2986 17.4711 55.2986 17.5103V21.8528C55.2986 21.9509 55.2495 22 55.1514 22H54.0326C53.9345 22 53.8854 21.9509 53.8854 21.8528V11.843C53.8854 11.7449 53.9345 11.6958 54.0326 11.6958H57.9924C58.5812 11.6958 59.0964 11.8185 59.538 12.0638C59.9894 12.3091 60.3378 12.6526 60.5832 13.0942C60.8285 13.5358 60.9512 14.0461 60.9512 14.6251C60.9512 15.3121 60.7696 15.896 60.4065 16.3768C60.0532 16.8479 59.5577 17.1668 58.9198 17.3337C58.8805 17.3533 58.8707 17.3778 58.8903 17.4073L61.0248 21.8234C61.0346 21.843 61.0395 21.8675 61.0395 21.897C61.0395 21.9657 61.0002 22 60.9217 22H59.7588ZM55.3575 12.9176C55.3182 12.9176 55.2986 12.9372 55.2986 12.9765V16.2738C55.2986 16.3131 55.3182 16.3327 55.3575 16.3327H57.8157C58.3359 16.3327 58.7529 16.1806 59.067 15.8764C59.381 15.5623 59.538 15.1502 59.538 14.6399C59.538 14.1197 59.381 13.7027 59.067 13.3886C58.7529 13.0746 58.3359 12.9176 57.8157 12.9176H55.3575ZM66.2252 22.1178C65.5186 22.1178 64.8905 21.9804 64.341 21.7056C63.8012 21.421 63.3793 21.0236 63.075 20.5133C62.7806 19.9931 62.6334 19.3994 62.6334 18.7321V14.9637C62.6334 14.2866 62.7806 13.6928 63.075 13.1825C63.3793 12.6722 63.8012 12.2797 64.341 12.0049C64.8905 11.7203 65.5186 11.578 66.2252 11.578C66.9318 11.578 67.5549 11.7154 68.0947 11.9902C68.6344 12.265 69.0515 12.6477 69.3459 13.1384C69.6501 13.6192 69.8022 14.1639 69.8022 14.7723V14.9343C69.8022 15.0324 69.7531 15.0815 69.655 15.0815H68.5363C68.4381 15.0815 68.3891 15.0324 68.3891 14.9343V14.8018C68.3891 14.213 68.1879 13.737 67.7855 13.3739C67.393 13.001 66.8729 12.8145 66.2252 12.8145C65.5677 12.8145 65.0377 13.0059 64.6354 13.3886C64.2428 13.7714 64.0466 14.2817 64.0466 14.9195V18.7763C64.0466 19.4141 64.2527 19.9244 64.6648 20.3072C65.077 20.6899 65.6167 20.8813 66.2841 20.8813C66.9318 20.8813 67.4421 20.7144 67.815 20.3808C68.1977 20.0373 68.3891 19.5712 68.3891 18.9823V17.8489C68.3891 17.8096 68.3694 17.79 68.3302 17.79H66.3429C66.2448 17.79 66.1957 17.7409 66.1957 17.6428V16.7301C66.1957 16.632 66.2448 16.5829 66.3429 16.5829H69.655C69.7531 16.5829 69.8022 16.632 69.8022 16.7301V18.5996C69.8022 19.7282 69.4784 20.5967 68.8307 21.2051C68.1928 21.8135 67.3243 22.1178 66.2252 22.1178ZM78.1107 22C78.0223 22 77.9635 21.9607 77.934 21.8822L77.4041 20.16C77.3943 20.1305 77.3746 20.1158 77.3452 20.1158H73.2088C73.1794 20.1158 73.1597 20.1305 73.1499 20.16L72.62 21.8822C72.5906 21.9607 72.5317 22 72.4433 22H71.251C71.1431 22 71.1038 21.946 71.1332 21.8381L74.357 11.8136C74.3864 11.7351 74.4453 11.6958 74.5336 11.6958H76.0057C76.094 11.6958 76.1529 11.7351 76.1823 11.8136L79.4355 21.8381L79.4502 21.897C79.4502 21.9657 79.406 22 79.3177 22H78.1107ZM73.5179 18.9235C73.5081 18.9431 73.5081 18.9627 73.5179 18.9823C73.5376 18.9922 73.5572 18.9971 73.5768 18.9971H76.9625C76.9821 18.9971 76.9968 18.9922 77.0066 18.9823C77.0263 18.9627 77.0312 18.9431 77.0214 18.9235L75.3138 13.4622C75.304 13.4426 75.2893 13.4328 75.2696 13.4328C75.25 13.4328 75.2353 13.4426 75.2255 13.4622L73.5179 18.9235ZM87 22C86.9215 22 86.8675 21.9657 86.8381 21.897L84.7772 17.4956C84.7674 17.4662 84.7478 17.4514 84.7183 17.4514H82.5986C82.5594 17.4514 82.5397 17.4711 82.5397 17.5103V21.8528C82.5397 21.9509 82.4907 22 82.3925 22H81.2738C81.1757 22 81.1266 21.9509 81.1266 21.8528V11.843C81.1266 11.7449 81.1757 11.6958 81.2738 11.6958H85.2336C85.8224 11.6958 86.3376 11.8185 86.7792 12.0638C87.2306 12.3091 87.579 12.6526 87.8243 13.0942C88.0697 13.5358 88.1923 14.0461 88.1923 14.6251C88.1923 15.3121 88.0108 15.896 87.6477 16.3768C87.2944 16.8479 86.7988 17.1668 86.1609 17.3337C86.1217 17.3533 86.1119 17.3778 86.1315 17.4073L88.2659 21.8234C88.2757 21.843 88.2807 21.8675 88.2807 21.897C88.2807 21.9657 88.2414 22 88.1629 22H87ZM82.5986 12.9176C82.5594 12.9176 82.5397 12.9372 82.5397 12.9765V16.2738C82.5397 16.3131 82.5594 16.3327 82.5986 16.3327H85.0569C85.577 16.3327 85.9941 16.1806 86.3081 15.8764C86.6222 15.5623 86.7792 15.1502 86.7792 14.6399C86.7792 14.1197 86.6222 13.7027 86.3081 13.3886C85.9941 13.0746 85.577 12.9176 85.0569 12.9176H82.5986ZM42.4841 40.1178C41.6793 40.1178 40.9679 39.9607 40.3496 39.6467C39.7412 39.3327 39.2652 38.8911 38.9217 38.3219C38.5881 37.7429 38.4213 37.0756 38.4213 36.3199V33.3464C38.4213 32.6006 38.5881 31.9431 38.9217 31.3739C39.2652 30.8047 39.7412 30.3631 40.3496 30.0491C40.9679 29.7351 41.6793 29.578 42.4841 29.578C43.2888 29.578 43.9953 29.7252 44.6038 30.0196C45.222 30.314 45.698 30.7311 46.0316 31.2709C46.3751 31.8008 46.5469 32.4191 46.5469 33.1256C46.5469 33.2139 46.4733 33.2679 46.326 33.2875L44.0002 33.4348H43.9561C43.8383 33.4348 43.7794 33.3808 43.7794 33.2728C43.7794 32.8705 43.6617 32.5515 43.4262 32.316C43.1906 32.0707 42.8766 31.948 42.4841 31.948C42.0915 31.948 41.7775 32.0707 41.542 32.316C41.3064 32.5515 41.1887 32.8705 41.1887 33.2728V36.4377C41.1887 36.8302 41.3064 37.1492 41.542 37.3945C41.7775 37.63 42.0915 37.7478 42.4841 37.7478C42.8766 37.7478 43.1906 37.63 43.4262 37.3945C43.6617 37.1492 43.7794 36.8302 43.7794 36.4377C43.7794 36.3788 43.7991 36.3346 43.8383 36.3052C43.8776 36.2758 43.9315 36.266 44.0002 36.2758L46.326 36.3935C46.4733 36.4033 46.5469 36.4524 46.5469 36.5407C46.5469 37.2473 46.3751 37.8705 46.0316 38.4102C45.698 38.95 45.222 39.3719 44.6038 39.6762C43.9953 39.9706 43.2888 40.1178 42.4841 40.1178ZM51.4248 40.1178C50.6005 40.1178 49.8792 39.9853 49.2609 39.7203C48.6427 39.4455 48.1618 39.0579 47.8183 38.5574C47.4847 38.0569 47.3178 37.4779 47.3178 36.8204V36.6143C47.3178 36.5456 47.3375 36.4917 47.3767 36.4524C47.416 36.4132 47.4699 36.3935 47.5386 36.3935H49.8203C49.889 36.3935 49.9429 36.4132 49.9822 36.4524C50.0215 36.4917 50.0411 36.5456 50.0411 36.6143V36.7027C50.0411 36.9774 50.1834 37.2228 50.468 37.4387C50.7624 37.6448 51.15 37.7478 51.6309 37.7478C51.994 37.7478 52.254 37.6742 52.411 37.527C52.5681 37.37 52.6466 37.1982 52.6466 37.0118C52.6466 36.7959 52.5484 36.634 52.3522 36.526C52.1559 36.4181 51.7977 36.2856 51.2776 36.1286L50.8507 36.0108C49.8792 35.7164 49.0646 35.3239 48.4071 34.8332C47.7496 34.3425 47.4209 33.631 47.4209 32.6987C47.4209 32.0805 47.5877 31.5358 47.9214 31.0648C48.255 30.5839 48.7113 30.2159 49.2903 29.9608C49.8792 29.7056 50.5367 29.578 51.2629 29.578C52.0283 29.578 52.7202 29.7203 53.3384 30.0049C53.9665 30.2895 54.4572 30.6919 54.8105 31.212C55.1736 31.7321 55.3551 32.3258 55.3551 32.9931V33.1256C55.3551 33.1943 55.3355 33.2483 55.2962 33.2875C55.257 33.3268 55.203 33.3464 55.1343 33.3464H52.8527C52.784 33.3464 52.73 33.3268 52.6907 33.2875C52.6515 33.2483 52.6319 33.1943 52.6319 33.1256V33.1109C52.6319 32.8165 52.4994 32.5515 52.2344 32.316C51.9694 32.0707 51.6112 31.948 51.1598 31.948C50.8458 31.948 50.5955 32.0118 50.4091 32.1394C50.2324 32.2669 50.1441 32.4436 50.1441 32.6693C50.1441 32.8459 50.2079 32.998 50.3355 33.1256C50.4729 33.2434 50.679 33.3611 50.9537 33.4789C51.2285 33.5869 51.6505 33.7292 52.2197 33.9058C52.2982 33.9352 52.6417 34.0432 53.2501 34.2296C53.8684 34.4063 54.3836 34.735 54.7957 35.2159C55.2079 35.687 55.414 36.261 55.414 36.9382C55.414 37.5957 55.2472 38.1649 54.9135 38.6457C54.5798 39.1168 54.1137 39.4799 53.5151 39.735C52.9164 39.9902 52.2197 40.1178 51.4248 40.1178ZM58.8624 40C58.8036 40 58.7496 39.9853 58.7005 39.9558C58.6515 39.9166 58.622 39.8675 58.6122 39.8086L55.7123 29.946C55.7025 29.9264 55.6976 29.9019 55.6976 29.8724C55.6976 29.7547 55.7663 29.6958 55.9037 29.6958H58.4208C58.5484 29.6958 58.6269 29.7596 58.6564 29.8872L60.1284 36.0991C60.1382 36.1384 60.1529 36.158 60.1725 36.158C60.1922 36.158 60.2069 36.1384 60.2167 36.0991L61.6446 29.8872C61.674 29.7596 61.7525 29.6958 61.8801 29.6958H64.3384C64.4169 29.6958 64.4709 29.7203 64.5003 29.7694C64.5396 29.8087 64.5494 29.8675 64.5298 29.946L61.6004 39.8086C61.5906 39.8675 61.5612 39.9166 61.5121 39.9558C61.463 39.9853 61.4091 40 61.3502 40H58.8624Z" fill="#454545"/>
<path d="M5.13251 1H159.867C162.147 1 164 4.0045 164 7.6997V40.3003C164 43.9955 162.147 47 159.867 47H5.13251C2.85324 47 1 43.9955 1 40.3003V7.6997C1 4.0045 2.85324 1 5.13251 1Z" stroke="#7A7A7A" stroke-width="0.402187" stroke-miterlimit="10"/>
<path d="M155.95 28.447C155.315 28.447 154.8 28.9618 154.8 29.597V36.497C154.8 37.1321 154.285 37.647 153.65 37.647H130.65C130.015 37.647 129.5 37.1321 129.5 36.497V29.597C129.5 28.9618 128.985 28.447 128.35 28.447C127.715 28.447 127.2 28.9618 127.2 29.597V36.497C127.2 38.4024 128.745 39.947 130.65 39.947H153.65C155.556 39.947 157.1 38.4024 157.1 36.497V29.597C157.1 28.9618 156.585 28.447 155.95 28.447Z" fill="#0502D3"/>
<path d="M148.69 27.6342C148.245 27.2039 147.538 27.2039 147.093 27.6342L143.303 31.4212V8.89734C143.303 8.26219 142.788 7.74731 142.153 7.74731C141.518 7.74731 141.003 8.26219 141.003 8.89734V31.4212L137.216 27.6342C136.759 27.193 136.031 27.2057 135.59 27.6625C135.16 28.1081 135.16 28.8147 135.59 29.2603L141.34 35.0103C141.789 35.4599 142.517 35.4609 142.966 35.0124C142.967 35.0117 142.968 35.011 142.969 35.0103L148.719 29.2603C149.16 28.8035 149.147 28.0755 148.69 27.6342Z" fill="#0502D3"/>
<path fill-rule="evenodd" clip-rule="evenodd" d="M100.326 24.4935H120.299V35.4022H106.734V34.4369H119.337V25.4589H101.288V34.4369H104.194V35.4022H100.326V24.4935Z" fill="#0502D3"/>
<path fill-rule="evenodd" clip-rule="evenodd" d="M95.0001 7.90002H112.329L117.586 13.4727V22.6758H116.624V13.8565L111.915 8.86437H95.962V38.7399H116.624V36.9693H117.586V39.7043H95.0001V7.90002Z" fill="#0502D3"/>
<path fill-rule="evenodd" clip-rule="evenodd" d="M111.697 8.41229H112.663V13.3364H117.125V14.302H111.697V8.41229Z" fill="#0502D3"/>
<path fill-rule="evenodd" clip-rule="evenodd" d="M99.6091 15.9408H112.976V23.0084H99.6091V15.9408ZM100.572 16.9011V22.0481H112.013V16.9011H100.572Z" fill="#0502D3"/>
<path fill-rule="evenodd" clip-rule="evenodd" d="M103.553 22.4961V16.5552H104.526V22.4961H103.553Z" fill="#0502D3"/>
<path fill-rule="evenodd" clip-rule="evenodd" d="M104.117 26.8636C104.334 26.7338 104.615 26.8043 104.744 27.0211L108.075 32.5845C108.205 32.8013 108.134 33.0823 107.918 33.2121C107.701 33.3419 107.42 33.2713 107.29 33.0545L103.959 27.4911C103.83 27.2743 103.9 26.9934 104.117 26.8636Z" fill="#0502D3"/>
<path fill-rule="evenodd" clip-rule="evenodd" d="M107.816 26.8049C108.037 26.9277 108.116 27.2063 107.993 27.4271L104.841 33.0933C104.718 33.3141 104.439 33.3935 104.218 33.2707C103.998 33.1478 103.918 32.8692 104.041 32.6484L107.194 26.9822C107.317 26.7614 107.595 26.682 107.816 26.8049Z" fill="#0502D3"/>
<path fill-rule="evenodd" clip-rule="evenodd" d="M109.693 26.7985C109.945 26.7985 110.15 27.0034 110.15 27.256V32.3619H112.035C112.288 32.3619 112.493 32.5668 112.493 32.8195C112.493 33.0721 112.288 33.277 112.035 33.277H109.693C109.44 33.277 109.235 33.0721 109.235 32.8195V27.256C109.235 27.0034 109.44 26.7985 109.693 26.7985Z" fill="#0502D3"/>
<path fill-rule="evenodd" clip-rule="evenodd" d="M113.188 27.256C113.188 27.0034 113.393 26.7985 113.646 26.7985H116.574C116.827 26.7985 117.032 27.0034 117.032 27.256C117.032 27.5087 116.827 27.7136 116.574 27.7136H114.103V29.2874H116.574C116.827 29.2874 117.032 29.4923 117.032 29.7449V32.8195C117.032 33.0721 116.827 33.277 116.574 33.277H113.646C113.393 33.277 113.188 33.0721 113.188 32.8195C113.188 32.5668 113.393 32.3619 113.646 32.3619H116.116V30.2025H113.646C113.393 30.2025 113.188 29.9976 113.188 29.7449V27.256Z" fill="#0502D3"/>
<path fill-rule="evenodd" clip-rule="evenodd" d="M112.669 19.8841H99.9165V18.911H112.669V19.8841Z" fill="#0502D3"/>
<path fill-rule="evenodd" clip-rule="evenodd" d="M108.06 22.5473V16.504H109.033V22.5473H108.06Z" fill="#0502D3"/>
</svg>
