<svg width="43" height="45" viewBox="0 0 43 45" fill="none" xmlns="http://www.w3.org/2000/svg">
<path d="M39.1625 44.6851H4.23528C2.24576 44.6851 0.477295 42.9167 0.477295 40.9271V22.1372C0.477295 21.253 0.919411 20.1477 1.58259 19.4845L19.0462 2.0209C20.5936 0.473491 22.8042 0.694549 24.3516 2.0209L41.8152 19.4845C42.4783 20.1477 42.9205 21.0319 42.9205 22.1372V41.1482C42.6994 43.1377 41.152 44.6851 39.1625 44.6851ZM21.6989 3.12619C21.2568 3.12619 21.0357 3.34725 20.5936 3.56831L3.12999 21.0319C2.90893 21.253 2.68788 21.6951 2.68788 22.1372V41.1482C2.68788 42.0324 3.35105 42.6956 4.23528 42.6956H39.1625C40.0467 42.6956 40.7099 42.0324 40.7099 41.1482V22.1372C40.7099 21.6951 40.4888 21.253 40.2678 21.0319L22.8042 3.56831C22.362 3.34725 22.141 3.12619 21.6989 3.12619Z" fill="#0502D3"/>
<path d="M27.4466 44.2432H15.9516C15.2884 44.2432 14.8463 43.8011 14.8463 43.138V30.0955C14.8463 29.4324 15.2884 28.9902 15.9516 28.9902H27.4466C28.1098 28.9902 28.5519 29.4324 28.5519 30.0955V43.138C28.5519 43.8011 27.8887 44.2432 27.4466 44.2432ZM17.0569 42.0327H26.3413V31.2008H17.0569V42.0327Z" fill="#0502D3"/>
</svg>
