<svg width="39" height="38" viewBox="0 0 39 38" fill="none" xmlns="http://www.w3.org/2000/svg">
<path d="M4.96317 25.5158V17.1974C4.96317 10.38 8.75021 0.689941 20.0232 0.689941C31.2962 0.689941 33.498 10.38 33.498 17.1974V25.5158C35.0833 25.5158 37.4612 26.1616 37.4612 28.745C37.4612 31.3284 35.0833 31.9743 33.498 31.9743H4.96317C3.64212 31.9743 1 31.3284 1 28.745C1 26.1616 3.64212 25.5158 4.96317 25.5158ZM4.96317 25.5158H16.0601" stroke="#9D9D9D" stroke-width="1.33798" stroke-linecap="round" stroke-linejoin="round"/>
<path d="M24.7793 31.9713C24.7793 34.6466 22.2951 36.8152 19.2308 36.8152C16.1665 36.8152 13.6824 34.6466 13.6824 31.9713" stroke="#9D9D9D" stroke-width="1.33798"/>
<path d="M19.231 25.5117H24.7794" stroke="#9D9D9D" stroke-width="1.33798" stroke-linecap="round" stroke-linejoin="round"/>
</svg>
