<svg width="89" height="99" viewBox="0 0 89 99" fill="none" xmlns="http://www.w3.org/2000/svg">
<g clip-path="url(#clip0)">
<path d="M2.48603 14.84C3.87821 14.84 4.97207 13.7445 4.97207 12.3501V4.97988H12.4302C13.8223 4.97988 14.9162 3.88431 14.9162 2.48994C14.9162 1.09557 13.7229 0 12.3307 0H2.48603C1.09385 0 0 1.09557 0 2.48994V12.3501C0 13.7445 1.09385 14.84 2.48603 14.84Z" fill="#0502D3"/>
<path d="M86.5143 0H76.6696C75.2774 0 74.1836 1.09557 74.1836 2.48994C74.1836 3.88431 75.2774 4.97988 76.6696 4.97988H84.1277V12.4497C84.1277 13.8441 85.2216 14.9396 86.6138 14.9396C88.0059 14.9396 89.0998 13.8441 89.0998 12.4497V2.48994C89.0004 1.09557 87.9065 0 86.5143 0Z" fill="#0502D3"/>
<path d="M2.48603 59.4601H12.3307C13.7229 59.4601 14.8168 58.3646 14.8168 56.9702C14.8168 55.5758 13.7229 54.4803 12.3307 54.4803H4.97207V47.0104C4.97207 45.6161 3.87821 44.5205 2.48603 44.5205C1.09385 44.5205 0 45.6161 0 47.0104V56.8706C0 58.3646 1.09385 59.4601 2.48603 59.4601Z" fill="#0502D3"/>
<path d="M86.5122 44.6201C85.12 44.6201 84.0262 45.7157 84.0262 47.1101V54.5799H76.5681C75.1759 54.5799 74.082 55.6754 74.082 57.0698C74.082 58.4642 75.1759 59.5598 76.5681 59.5598H86.5122C87.9044 59.5598 88.9982 58.4642 88.9982 57.0698V47.2097C88.9982 45.7157 87.9044 44.6201 86.5122 44.6201Z" fill="#0502D3"/>
<path d="M68.0179 69.6183C60.2615 67.3276 56.8804 65.9332 56.8804 61.9493V56.6706C56.8804 56.0731 57.3777 55.6747 57.676 55.4755C64.9352 50.1968 69.3106 38.2451 69.3106 29.7793C69.2112 16.0348 58.1732 4.97949 44.5497 4.97949C30.8268 4.97949 19.7888 16.0348 19.7888 29.6797C19.7888 38.1455 24.1642 50.0972 31.4235 55.3759C31.6223 55.5751 32.219 55.9735 32.219 56.571V61.8497C32.219 65.8336 28.838 67.3276 21.0816 69.5187C12.1318 72.2079 0 75.7934 0 91.6294V96.6093C0 98.0036 1.09385 99.0992 2.48603 99.0992H86.514C87.9062 99.0992 89 98.0036 89 96.6093V91.6294C89 75.7934 76.8682 72.2079 68.0179 69.6183ZM84.0279 94.1193H4.97207V91.6294C4.97207 79.4785 13.4246 76.9885 22.4737 74.399C29.733 72.3074 37.1911 70.1163 37.1911 61.9493V56.6706C37.1911 54.6787 36.1966 52.7863 34.4067 51.4916C28.6391 47.3085 24.8603 36.8507 24.8603 29.7793C24.8603 18.8236 33.7106 9.95937 44.6492 9.95937C55.5877 9.95937 64.438 18.8236 64.438 29.7793C64.438 36.9503 60.5598 47.3085 54.8916 51.4916C53.1017 52.7863 52.1073 54.6787 52.1073 56.6706V61.9493C52.1073 70.1163 59.5654 72.3074 66.8246 74.399C75.7743 76.9885 84.3263 79.4785 84.3263 91.6294V94.1193H84.0279Z" fill="#0502D3"/>
</g>
<defs>
<clipPath id="clip0">
<rect width="89" height="99" fill="white"/>
</clipPath>
</defs>
</svg>
