<svg width="31" height="32" viewBox="0 0 31 32" fill="none" xmlns="http://www.w3.org/2000/svg">
<path d="M0.864956 4.79195C1.34933 4.79195 1.72991 4.43819 1.72991 3.98794V1.60804H4.32478C4.80916 1.60804 5.18974 1.25427 5.18974 0.804019C5.18974 0.353769 4.77456 0 4.29018 0H0.864956C0.380581 0 0 0.353769 0 0.804019V3.98794C0 4.43819 0.380581 4.79195 0.864956 4.79195Z" fill="#424242"/>
<path d="M30.1004 0H26.6752C26.1908 0 25.8102 0.353768 25.8102 0.804019C25.8102 1.25427 26.1908 1.60804 26.6752 1.60804H29.2701V4.0201C29.2701 4.47035 29.6507 4.82412 30.135 4.82412C30.6194 4.82412 31 4.47035 31 4.0201V0.804019C30.9654 0.353768 30.5848 0 30.1004 0Z" fill="#424242"/>
<path d="M0.864956 19.1998H4.29018C4.77456 19.1998 5.15514 18.8461 5.15514 18.3958C5.15514 17.9456 4.77456 17.5918 4.29018 17.5918H1.72991V15.1798C1.72991 14.7295 1.34933 14.3757 0.864956 14.3757C0.380581 14.3757 0 14.7295 0 15.1798V18.3637C0 18.8461 0.380581 19.1998 0.864956 19.1998Z" fill="#424242"/>
<path d="M30.1004 14.408C29.616 14.408 29.2354 14.7617 29.2354 15.212V17.624H26.6405C26.1562 17.624 25.7756 17.9778 25.7756 18.4281C25.7756 18.8783 26.1562 19.2321 26.6405 19.2321H30.1004C30.5847 19.2321 30.9653 18.8783 30.9653 18.4281V15.2441C30.9653 14.7617 30.5847 14.408 30.1004 14.408Z" fill="#424242"/>
<path d="M23.6652 22.4805C20.9665 21.7408 19.7902 21.2905 19.7902 20.0041V18.2996C19.7902 18.1066 19.9632 17.978 20.067 17.9137C22.5927 16.2091 24.115 12.3498 24.115 9.61618C24.0804 5.178 20.24 1.60815 15.5 1.60815C10.7255 1.60815 6.88505 5.178 6.88505 9.58402C6.88505 12.3177 8.40738 16.177 10.933 17.8815C11.0022 17.9458 11.2098 18.0745 11.2098 18.2674V19.9719C11.2098 21.2584 10.0335 21.7408 7.33483 22.4483C4.22099 23.3167 0 24.4745 0 29.588V31.1961C0 31.6463 0.380581 32.0001 0.864956 32.0001H30.1005C30.5849 32.0001 30.9654 31.6463 30.9654 31.1961V29.588C30.9654 24.4745 26.7445 23.3167 23.6652 22.4805ZM29.2355 30.392H1.72991V29.588C1.72991 25.6644 4.67076 24.8604 7.81921 24.0242C10.3449 23.3488 12.9397 22.6413 12.9397 20.0041V18.2996C12.9397 17.6564 12.5938 17.0453 11.971 16.6272C9.9643 15.2765 8.64956 11.8996 8.64956 9.61618C8.64956 6.0785 11.7288 3.21619 15.5346 3.21619C19.3404 3.21619 22.4197 6.0785 22.4197 9.61618C22.4197 11.9318 21.0703 15.2765 19.0982 16.6272C18.4755 17.0453 18.1295 17.6564 18.1295 18.2996V20.0041C18.1295 22.6413 20.7244 23.3488 23.25 24.0242C26.3639 24.8604 29.3393 25.6644 29.3393 29.588V30.392H29.2355Z" fill="#424242"/>
</svg>
