<svg width="58" height="24" viewBox="0 0 58 24" fill="none" xmlns="http://www.w3.org/2000/svg">
<path fill-rule="evenodd" clip-rule="evenodd" d="M10.8872 5.28091C10.0019 5.28091 9.2842 5.97947 9.2842 6.84119C9.2842 7.7029 10.0019 8.40146 10.8872 8.40146C11.7725 8.40146 12.4902 7.7029 12.4902 6.84119C12.4902 5.97947 11.7725 5.28091 10.8872 5.28091ZM7.55786 6.84119C7.55786 5.05147 9.04847 3.60062 10.8872 3.60062C12.726 3.60062 14.2166 5.05147 14.2166 6.84119C14.2166 8.6309 12.726 10.0818 10.8872 10.0818C9.04847 10.0818 7.55786 8.6309 7.55786 6.84119Z" fill="#0502D3"/>
<path fill-rule="evenodd" clip-rule="evenodd" d="M10.8873 1.68027C7.9589 1.68027 5.58497 3.99089 5.58497 6.84119C5.58497 9.69148 7.9589 12.0021 10.8873 12.0021C13.8157 12.0021 16.1896 9.69148 16.1896 6.84119C16.1896 3.99089 13.8157 1.68027 10.8873 1.68027ZM3.85864 6.84119C3.85864 3.06289 7.00547 -3.05176e-05 10.8873 -3.05176e-05C14.7691 -3.05176e-05 17.9159 3.06289 17.9159 6.84119C17.9159 10.6195 14.7691 13.6824 10.8873 13.6824C7.00547 13.6824 3.85864 10.6195 3.85864 6.84119Z" fill="#0502D3"/>
<path fill-rule="evenodd" clip-rule="evenodd" d="M46.647 5.28091C45.7617 5.28091 45.044 5.97947 45.044 6.84119C45.044 7.7029 45.7617 8.40146 46.647 8.40146C47.5323 8.40146 48.25 7.7029 48.25 6.84119C48.25 5.97947 47.5323 5.28091 46.647 5.28091ZM43.3176 6.84119C43.3176 5.05147 44.8082 3.60062 46.647 3.60062C48.4857 3.60062 49.9763 5.05147 49.9763 6.84119C49.9763 8.6309 48.4857 10.0818 46.647 10.0818C44.8082 10.0818 43.3176 8.6309 43.3176 6.84119Z" fill="#0502D3"/>
<path fill-rule="evenodd" clip-rule="evenodd" d="M46.647 1.68027C43.7187 1.68027 41.3447 3.99089 41.3447 6.84119C41.3447 9.69148 43.7187 12.0021 46.647 12.0021C49.5754 12.0021 51.9493 9.69148 51.9493 6.84119C51.9493 3.99089 49.5754 1.68027 46.647 1.68027ZM39.6184 6.84119C39.6184 3.06289 42.7652 -3.05176e-05 46.647 -3.05176e-05C50.5288 -3.05176e-05 53.6757 3.06289 53.6757 6.84119C53.6757 10.6195 50.5288 13.6824 46.647 13.6824C42.7652 13.6824 39.6184 10.6195 39.6184 6.84119Z" fill="#0502D3"/>
<path fill-rule="evenodd" clip-rule="evenodd" d="M37.8589 21.6038H55.4352C54.3155 17.6984 50.7833 14.8826 46.647 14.8826C42.5108 14.8826 38.9786 17.6984 37.8589 21.6038ZM35.9313 22.303C36.8312 17.1577 41.2609 13.2023 46.647 13.2023C52.0332 13.2023 56.4629 17.1577 57.3627 22.303L57.5343 23.2841H35.7598L35.9313 22.303Z" fill="#0502D3"/>
<path fill-rule="evenodd" clip-rule="evenodd" d="M2.09912 21.6038H19.6754C18.5557 17.6985 15.0235 14.8826 10.8873 14.8826C6.75101 14.8826 3.21884 17.6985 2.09912 21.6038ZM0.171583 22.303C1.0714 17.1577 5.50111 13.2023 10.8873 13.2023C16.2734 13.2023 20.7031 17.1577 21.6029 22.303L21.7745 23.2841H0L0.171583 22.303Z" fill="#0502D3"/>
<path fill-rule="evenodd" clip-rule="evenodd" d="M10.1692 22.9109L5.23682 15.7096L6.67321 14.7776L10.8385 20.859L14.4576 14.8203L15.9488 15.6669L11.633 22.8682L10.1692 22.9109Z" fill="#0502D3"/>
<path fill-rule="evenodd" clip-rule="evenodd" d="M46.6471 16.3104L43.0769 22.2676L41.5993 22.2896L38.5166 17.4887L39.9805 16.5981L42.3058 20.2194L45.9015 14.2197H47.3927L50.9884 20.2194L53.3137 16.5981L54.7776 17.4887L51.6949 22.2896L50.2174 22.2676L46.6471 16.3104Z" fill="#0502D3"/>
</svg>
