<svg width="151" height="102" viewBox="0 0 151 102" fill="none" xmlns="http://www.w3.org/2000/svg">
<g clip-path="url(#clip0)">
<path d="M2.49835 14.8854C3.89742 14.8854 4.99669 13.7865 4.99669 12.3879V4.9951H12.4917C13.8908 4.9951 14.9901 3.89618 14.9901 2.49755C14.9901 1.09892 13.7909 0 12.3918 0H2.49835C1.09927 0 0 1.09892 0 2.49755V12.3879C0 13.7865 1.09927 14.8854 2.49835 14.8854Z" fill="#0502D3"/>
<path d="M148.501 0H138.608C137.209 0 136.109 1.09892 136.109 2.49755C136.109 3.89618 137.209 4.9951 138.608 4.9951H146.103V12.4878C146.103 13.8864 147.202 14.9853 148.601 14.9853C150 14.9853 151.099 13.8864 151.099 12.4878V2.49755C151 1.09892 149.9 0 148.501 0Z" fill="#0502D3"/>
<path d="M2.49835 59.6416H12.3918C13.7909 59.6416 14.8901 58.5426 14.8901 57.144C14.8901 55.7454 13.7909 54.6465 12.3918 54.6465H4.99669V47.1538C4.99669 45.7552 3.89742 44.6562 2.49835 44.6562C1.09927 44.6562 0 45.7552 0 47.1538V57.0441C0 58.5426 1.09927 59.6416 2.49835 59.6416Z" fill="#0502D3"/>
<path d="M148.503 44.7559C147.104 44.7559 146.005 45.8548 146.005 47.2534V54.7461H138.51C137.111 54.7461 136.012 55.845 136.012 57.2436C136.012 58.6422 137.111 59.7412 138.51 59.7412H148.403C149.803 59.7412 150.902 58.6422 150.902 57.2436V47.3533C151.002 45.8548 149.903 44.7559 148.503 44.7559Z" fill="#0502D3"/>
<path d="M115.922 46.6543H119.42" stroke="#354490" stroke-width="5" stroke-miterlimit="10" stroke-linecap="round" stroke-linejoin="round"/>
<path d="M126.417 39.7607H122.92C121.021 39.7607 119.422 41.2593 119.422 43.1574V46.5541H128.116C128.116 46.5541 129.815 45.0556 129.815 43.1574V39.7607H126.417Z" stroke="#0502D3" stroke-width="5" stroke-miterlimit="10" stroke-linecap="round" stroke-linejoin="round"/>
<path d="M25.5813 39.7607H29.079C30.9778 39.7607 32.5767 41.2593 32.5767 43.1574V46.5541H23.8825C23.8825 46.5541 22.1836 45.0556 22.1836 43.1574V39.7607H25.5813Z" stroke="#0502D3" stroke-width="5" stroke-miterlimit="10" stroke-linecap="round" stroke-linejoin="round"/>
<path d="M36.0758 46.6543H32.5781" stroke="#354490" stroke-width="5" stroke-miterlimit="10" stroke-linecap="round" stroke-linejoin="round"/>
<path d="M56.8633 77.3242H95.1379" stroke="#0502D3" stroke-width="5" stroke-miterlimit="10" stroke-linecap="round" stroke-linejoin="round"/>
<path d="M125.615 55.1463L116.021 46.6546C116.021 46.6546 107.327 27.873 100.432 27.873H51.6641C44.6687 27.873 36.0744 46.6546 36.0744 46.6546L26.4807 55.1463C26.4807 55.1463 22.1836 60.0415 22.1836 68.2335V89.3128V96.1062C22.1836 98.0043 23.7825 99.5028 25.6813 99.5028H37.8732C39.7719 99.5028 41.3709 98.0043 41.3709 96.1062V91.0111H110.825V96.1062C110.825 98.0043 112.424 99.5028 114.323 99.5028H126.514C128.413 99.5028 130.012 98.0043 130.012 96.1062V89.3128V68.2335C129.812 60.0415 125.615 55.1463 125.615 55.1463Z" stroke="#0502D3" stroke-width="5" stroke-miterlimit="10" stroke-linecap="round" stroke-linejoin="round"/>
</g>
<defs>
<clipPath id="clip0">
<rect width="151" height="102" fill="white"/>
</clipPath>
</defs>
</svg>
