<svg width="39" height="39" viewBox="0 0 39 39" fill="none" xmlns="http://www.w3.org/2000/svg">
<path d="M33.1006 5.70075C25.501 -1.89896 13.303 -1.90154 5.70075 5.70075C-1.89896 13.3004 -1.90154 25.4984 5.70075 33.1006C13.3004 40.7004 25.4984 40.7029 33.1006 33.1006C40.7004 25.5011 40.7029 13.303 33.1006 5.70075ZM19.4007 36.5245C9.95859 36.5245 2.2769 28.8428 2.2769 19.4007C2.2769 9.95859 9.95859 2.2769 19.4007 2.2769C28.8428 2.2769 36.5245 9.95859 36.5245 19.4007C36.5245 28.8428 28.8428 36.5245 19.4007 36.5245Z" fill="#424242"/>
<path d="M24.9822 13.1088C24.5127 12.6922 23.7944 12.735 23.3778 13.2045C22.9611 13.674 23.0039 14.3923 23.4735 14.809C24.7861 15.9739 25.5389 17.6477 25.5389 19.4011C25.5389 22.7853 22.7858 25.5384 19.4016 25.5384C16.0175 25.5384 13.2644 22.7853 13.2644 19.4011C13.2644 17.6303 14.0297 15.9456 15.3641 14.7788C15.8366 14.3657 15.8847 13.6477 15.4715 13.1751C15.0583 12.7025 14.3403 12.6545 13.8678 13.0677C12.0397 14.6661 10.9912 16.9745 10.9912 19.4011C10.9912 24.0386 14.764 27.8115 19.4016 27.8115C24.0391 27.8115 27.8119 24.0386 27.8119 19.4011C27.812 16.9982 26.7806 14.7048 24.9822 13.1088Z" fill="#424242"/>
<path d="M19.4014 17.5046C20.029 17.5046 20.5379 16.9957 20.5379 16.368V10.3065C20.5379 9.67885 20.029 9.16998 19.4014 9.16998C18.7737 9.16998 18.2648 9.67885 18.2648 10.3065V16.368C18.2648 16.9958 18.7737 17.5046 19.4014 17.5046Z" fill="#424242"/>
</svg>
