<svg width="64" height="26" viewBox="0 0 64 26" fill="none" xmlns="http://www.w3.org/2000/svg">
<path fill-rule="evenodd" clip-rule="evenodd" d="M12.5868 5.88709C11.6262 5.88709 10.8474 6.66583 10.8474 7.62646C10.8474 8.58709 11.6262 9.36583 12.5868 9.36583C13.5474 9.36583 14.3262 8.58709 14.3262 7.62646C14.3262 6.66583 13.5474 5.88709 12.5868 5.88709ZM8.97424 7.62646C8.97424 5.63131 10.5916 4.01392 12.5868 4.01392C14.5819 4.01392 16.1993 5.63131 16.1993 7.62646C16.1993 9.62161 14.5819 11.239 12.5868 11.239C10.5916 11.239 8.97424 9.62161 8.97424 7.62646Z" fill="#424242"/>
<path fill-rule="evenodd" clip-rule="evenodd" d="M12.5867 1.87317C9.40922 1.87317 6.83338 4.44902 6.83338 7.62648C6.83338 10.8039 9.40922 13.3798 12.5867 13.3798C15.7642 13.3798 18.34 10.8039 18.34 7.62648C18.34 4.44902 15.7642 1.87317 12.5867 1.87317ZM4.96021 7.62648C4.96021 3.41449 8.3747 0 12.5867 0C16.7987 0 20.2132 3.41449 20.2132 7.62648C20.2132 11.8385 16.7987 15.253 12.5867 15.253C8.3747 15.253 4.96021 11.8385 4.96021 7.62648Z" fill="#424242"/>
<path fill-rule="evenodd" clip-rule="evenodd" d="M51.3882 5.88709C50.4275 5.88709 49.6488 6.66583 49.6488 7.62646C49.6488 8.58709 50.4275 9.36583 51.3882 9.36583C52.3488 9.36583 53.1276 8.58709 53.1276 7.62646C53.1276 6.66583 52.3488 5.88709 51.3882 5.88709ZM47.7756 7.62646C47.7756 5.63131 49.393 4.01392 51.3882 4.01392C53.3833 4.01392 55.0007 5.63131 55.0007 7.62646C55.0007 9.62161 53.3833 11.239 51.3882 11.239C49.393 11.239 47.7756 9.62161 47.7756 7.62646Z" fill="#424242"/>
<path fill-rule="evenodd" clip-rule="evenodd" d="M51.3881 1.87317C48.2106 1.87317 45.6348 4.44902 45.6348 7.62648C45.6348 10.8039 48.2106 13.3798 51.3881 13.3798C54.5655 13.3798 57.1414 10.8039 57.1414 7.62648C57.1414 4.44902 54.5655 1.87317 51.3881 1.87317ZM43.7616 7.62648C43.7616 3.41449 47.1761 0 51.3881 0C55.6001 0 59.0146 3.41449 59.0146 7.62648C59.0146 11.8385 55.6001 15.253 51.3881 15.253C47.1761 15.253 43.7616 11.8385 43.7616 7.62648Z" fill="#424242"/>
<path fill-rule="evenodd" clip-rule="evenodd" d="M41.8526 24.0836H60.9239C59.7089 19.73 55.8763 16.5909 51.3883 16.5909C46.9002 16.5909 43.0676 19.73 41.8526 24.0836ZM39.7611 24.863C40.7375 19.1272 45.544 14.7178 51.3883 14.7178C57.2326 14.7178 62.039 19.1272 63.0154 24.863L63.2016 25.9568H39.575L39.7611 24.863Z" fill="#424242"/>
<path fill-rule="evenodd" clip-rule="evenodd" d="M3.05123 24.0836H22.1225C20.9076 19.73 17.0749 16.5909 12.5869 16.5909C8.09881 16.5909 4.26619 19.73 3.05123 24.0836ZM0.959737 24.863C1.93609 19.1272 6.74259 14.7178 12.5869 14.7178C18.4312 14.7178 23.2377 19.1272 24.214 24.863L24.4002 25.9568H0.77356L0.959737 24.863Z" fill="#424242"/>
<path fill-rule="evenodd" clip-rule="evenodd" d="M11.8076 25.5408L6.45569 17.5129L8.01426 16.4739L12.5339 23.2533L16.4608 16.5215L18.0788 17.4653L13.3959 25.4932L11.8076 25.5408Z" fill="#424242"/>
<path fill-rule="evenodd" clip-rule="evenodd" d="M51.3881 18.1825L47.5142 24.8235L45.911 24.848L42.566 19.4961L44.1545 18.5033L46.6776 22.5402L50.5791 15.8518H52.1971L56.0987 22.5402L58.6218 18.5033L60.2102 19.4961L56.8653 24.848L55.2621 24.8235L51.3881 18.1825Z" fill="#424242"/>
</svg>
