<svg width="50" height="50" viewBox="0 0 50 50" fill="none" xmlns="http://www.w3.org/2000/svg">
<path d="M49.0353 50H1.18157C0.590786 50 0 49.2754 0 48.5507V1.44928C0 0.724638 0.590786 0 1.18157 0C1.77236 0 2.36314 0.724638 2.36314 1.44928V46.3768H48.7399C49.3306 46.3768 49.9214 47.1014 49.9214 47.8261C50.2168 49.2754 49.626 50 49.0353 50Z" fill="#424242"/>
<path fill-rule="evenodd" clip-rule="evenodd" d="M40.4331 2.84737C40.8925 2.79758 41.34 3.03955 41.6114 3.48443L48.5998 14.9426C49.0255 15.6405 48.8961 16.6177 48.3108 17.1253C47.7255 17.6328 46.906 17.4785 46.4804 16.7807L40.7831 7.43935L31.2503 31.121C31.0664 31.5778 30.7082 31.8999 30.2893 31.9851C29.8704 32.0703 29.4429 31.908 29.1425 31.5497L16.4981 16.4721L7.67419 39.4291C7.37267 40.2136 6.59493 40.558 5.93706 40.1985C5.27919 39.8389 4.99031 38.9115 5.29184 38.1271L14.9009 13.1273C15.0797 12.6623 15.4381 12.331 15.8603 12.2405C16.2826 12.15 16.7153 12.3117 17.0187 12.6735L29.6879 27.7807L39.3704 3.72731C39.57 3.23138 39.9736 2.89716 40.4331 2.84737Z" fill="#424242"/>
</svg>
