<svg width="40" height="43" viewBox="0 0 40 43" fill="none" xmlns="http://www.w3.org/2000/svg">
<path d="M1.07845 6.43919C1.68238 6.43919 2.1569 5.96381 2.1569 5.35879V2.1608H5.39226C5.99619 2.1608 6.47071 1.68542 6.47071 1.0804C6.47071 0.475376 5.95305 0 5.34912 0H1.07845C0.474519 0 0 0.475376 0 1.0804V5.35879C0 5.96381 0.474519 6.43919 1.07845 6.43919Z" fill="#0502D3"/>
<path d="M37.5308 0H33.2601C32.6562 0 32.1816 0.475376 32.1816 1.0804C32.1816 1.68542 32.6562 2.1608 33.2601 2.1608H36.4954V5.402C36.4954 6.00703 36.97 6.4824 37.5739 6.4824C38.1778 6.4824 38.6524 6.00703 38.6524 5.402V1.0804C38.6092 0.475376 38.1347 0 37.5308 0Z" fill="#0502D3"/>
<path d="M1.07845 25.7998H5.34912C5.95305 25.7998 6.42757 25.3244 6.42757 24.7194C6.42757 24.1144 5.95305 23.639 5.34912 23.639H2.1569V20.3978C2.1569 19.7928 1.68238 19.3174 1.07845 19.3174C0.474519 19.3174 0 19.7928 0 20.3978V24.6762C0 25.3244 0.474519 25.7998 1.07845 25.7998Z" fill="#0502D3"/>
<path d="M37.5309 19.3608C36.927 19.3608 36.4525 19.8362 36.4525 20.4412V23.6824H33.2171C32.6132 23.6824 32.1387 24.1578 32.1387 24.7628C32.1387 25.3679 32.6132 25.8432 33.2171 25.8432H37.5309C38.1349 25.8432 38.6094 25.3679 38.6094 24.7628V20.4845C38.6094 19.8362 38.1349 19.3608 37.5309 19.3608Z" fill="#0502D3"/>
<path d="M29.5064 30.2078C26.1417 29.2139 24.675 28.6088 24.675 26.8802V24.5898C24.675 24.3305 24.8907 24.1576 25.0201 24.0712C28.1692 21.7807 30.0672 16.5948 30.0672 12.9214C30.0241 6.95762 25.2358 2.16064 19.3259 2.16064C13.3728 2.16064 8.58448 6.95762 8.58448 12.8782C8.58448 16.5516 10.4826 21.7375 13.6316 24.0279C13.7179 24.1144 13.9767 24.2872 13.9767 24.5465V26.837C13.9767 28.5656 12.51 29.2139 9.14527 30.1646C5.26285 31.3315 0 32.8872 0 39.7586V41.9194C0 42.5244 0.474519 42.9998 1.07845 42.9998H37.5301C38.1341 42.9998 38.6086 42.5244 38.6086 41.9194V39.7586C38.6086 32.8872 33.3457 31.3315 29.5064 30.2078ZM36.4517 40.839H2.1569V39.7586C2.1569 34.4862 5.82364 33.4058 9.7492 32.2822C12.8983 31.3747 16.1336 30.4239 16.1336 26.8802V24.5898C16.1336 23.7254 15.7023 22.9043 14.9258 22.3425C12.4238 20.5274 10.7845 15.9898 10.7845 12.9214C10.7845 8.16767 14.6238 4.32144 19.369 4.32144C24.1142 4.32144 27.9535 8.16767 27.9535 12.9214C27.9535 16.033 26.2711 20.5274 23.8122 22.3425C23.0357 22.9043 22.6044 23.7254 22.6044 24.5898V26.8802C22.6044 30.4239 25.8397 31.3747 28.9888 32.2822C32.8712 33.4058 36.5811 34.4862 36.5811 39.7586V40.839H36.4517Z" fill="#0502D3"/>
</svg>
